<?xml version="1.0" encoding="UTF-8"?>
<svg version="1.1" xmlns="http://www.w3.org/2000/svg" width="92" height="92">
<path d="M0 0 C5.25327997 3.12437102 9.19265372 7.35735751 11.51953125 13.05078125 C12.19709203 19.86158706 12.42638527 26.19050022 8.51953125 32.05078125 C7.93171875 33.22640625 7.93171875 33.22640625 7.33203125 34.42578125 C7.06390625 34.96203125 6.79578125 35.49828125 6.51953125 36.05078125 C7.17953125 36.38078125 7.83953125 36.71078125 8.51953125 37.05078125 C8.64453125 42.80078125 8.64453125 42.80078125 7.51953125 45.05078125 C5.86953125 45.05078125 4.21953125 45.05078125 2.51953125 45.05078125 C2.42671875 46.16453125 2.42671875 46.16453125 2.33203125 47.30078125 C1.26803213 50.90200902 -0.39417547 52.01834421 -3.48046875 54.05078125 C-4.14046875 54.05078125 -4.80046875 54.05078125 -5.48046875 54.05078125 C-5.48046875 56.36078125 -5.48046875 58.67078125 -5.48046875 61.05078125 C-6.42921875 61.21578125 -7.37796875 61.38078125 -8.35546875 61.55078125 C-11.50667664 62.68108558 -11.50667664 62.68108558 -12.39453125 64.7890625 C-13.67010692 69.30460037 -13.47578018 71.72004848 -11.48046875 76.05078125 C-18.87210373 84.82834779 -18.87210373 84.82834779 -22.68359375 85.35546875 C-24.63310158 85.00574788 -26.55897779 84.53115399 -28.48046875 84.05078125 C-31.35599331 84.49900533 -31.35599331 84.49900533 -33.48046875 86.05078125 C-34.14046875 87.70078125 -34.80046875 89.35078125 -35.48046875 91.05078125 C-40.76046875 91.05078125 -46.04046875 91.05078125 -51.48046875 91.05078125 C-51.81046875 89.40078125 -52.14046875 87.75078125 -52.48046875 86.05078125 C-56.82019806 83.06721735 -61.57264381 84.2595415 -66.48046875 85.05078125 C-66.48046875 84.39078125 -66.48046875 83.73078125 -66.48046875 83.05078125 C-67.40859375 82.67953125 -67.40859375 82.67953125 -68.35546875 82.30078125 C-70.86757171 80.82307363 -71.24154219 79.61122948 -72.48046875 77.05078125 C-73.47046875 76.72078125 -74.46046875 76.39078125 -75.48046875 76.05078125 C-75.10921875 74.99890625 -74.73796875 73.94703125 -74.35546875 72.86328125 C-73.24568104 69.22413834 -73.24568104 69.22413834 -74.04296875 66.23828125 C-75.56831546 63.46273484 -75.56831546 63.46273484 -80.48046875 62.05078125 C-80.48046875 56.77078125 -80.48046875 51.49078125 -80.48046875 46.05078125 C-78.83046875 45.39078125 -77.18046875 44.73078125 -75.48046875 44.05078125 C-73.88623155 40.76291984 -73.88623155 40.76291984 -73.48046875 37.05078125 C-74.14046875 35.40078125 -74.80046875 33.75078125 -75.48046875 32.05078125 C-72.18046875 28.75078125 -68.88046875 25.45078125 -65.48046875 22.05078125 C-64.44921875 22.44265625 -63.41796875 22.83453125 -62.35546875 23.23828125 C-58.54136558 24.37130721 -58.54136558 24.37130721 -55.16796875 22.98828125 C-51.95749076 21.03859351 -51.95749076 21.03859351 -50.48046875 16.05078125 C-45.86046875 16.05078125 -41.24046875 16.05078125 -36.48046875 16.05078125 C-35.82046875 18.03078125 -35.16046875 20.01078125 -34.48046875 22.05078125 C-32.44803327 23.01955182 -32.44803327 23.01955182 -30.48046875 23.05078125 C-30.56296875 21.89578125 -30.64546875 20.74078125 -30.73046875 19.55078125 C-30.71940345 13.29888679 -28.0595573 8.92075454 -24.10546875 4.23828125 C-17.22880943 -1.49226819 -8.6073685 -3.29384338 0 0 Z " fill="#40352F" transform="translate(80.48046875,0.94921875)"/>
<path d="M0 0 C0.99 0 1.98 0 3 0 C3.07476562 0.7734375 3.14953125 1.546875 3.2265625 2.34375 C4.07013824 9.02619313 5.26972067 13.38719521 9.7578125 18.4765625 C11 20 11 20 11 22 C12.65 22 14.3 22 16 22 C16 22.33 16 22.66 16 23 C1.29777358 23.7250413 1.29777358 23.7250413 -4 19 C-10.07543566 16.97485478 -17.45235531 16.89953511 -23.375 19.5 C-28.51838337 22.4958329 -32.13538445 27.40615335 -34 33 C-34.68762824 41.30443335 -33.84875268 46.82182941 -29.125 53.75 C-25.15154946 57.95718292 -21.15889965 59.70078746 -15.484375 60.23828125 C-9.07666293 60.41220486 -4.23937676 59.88190187 1 56 C6.77288375 50.49219765 8.29411767 45.55330824 8.625 37.75 C8.66367187 37.00492188 8.70234375 36.25984375 8.7421875 35.4921875 C8.83605108 33.6618476 8.91909718 31.83095857 9 30 C7.68 29.67 6.36 29.34 5 29 C4.67 27.35 4.34 25.7 4 24 C4.66 24 5.32 24 6 24 C6 24.99 6 25.98 6 27 C15.57 27 25.14 27 35 27 C35.495 28.485 35.495 28.485 36 30 C35.01 30 34.02 30 33 30 C32.9071875 31.11375 32.9071875 31.11375 32.8125 32.25 C31.74850088 35.85122777 30.08629328 36.96756296 27 39 C26.34 39 25.68 39 25 39 C25 41.31 25 43.62 25 46 C24.05125 46.165 23.1025 46.33 22.125 46.5 C18.97379211 47.63030433 18.97379211 47.63030433 18.0859375 49.73828125 C16.81036183 54.25381912 17.00468857 56.66926723 19 61 C11.60836502 69.77756654 11.60836502 69.77756654 7.796875 70.3046875 C5.84736717 69.95496663 3.92149096 69.48037274 2 69 C-0.87552456 69.44822408 -0.87552456 69.44822408 -3 71 C-3.66 72.65 -4.32 74.3 -5 76 C-10.28 76 -15.56 76 -21 76 C-21.33 74.35 -21.66 72.7 -22 71 C-26.33972931 68.0164361 -31.09217506 69.20876025 -36 70 C-36 69.34 -36 68.68 -36 68 C-36.928125 67.62875 -36.928125 67.62875 -37.875 67.25 C-40.38710296 65.77229238 -40.76107344 64.56044823 -42 62 C-42.99 61.67 -43.98 61.34 -45 61 C-44.62875 59.948125 -44.2575 58.89625 -43.875 57.8125 C-42.76521229 54.17335709 -42.76521229 54.17335709 -43.5625 51.1875 C-45.08784671 48.41195359 -45.08784671 48.41195359 -50 47 C-50 41.72 -50 36.44 -50 31 C-48.35 30.34 -46.7 29.68 -45 29 C-43.4057628 25.71213859 -43.4057628 25.71213859 -43 22 C-43.66 20.35 -44.32 18.7 -45 17 C-41.7 13.7 -38.4 10.4 -35 7 C-33.96875 7.391875 -32.9375 7.78375 -31.875 8.1875 C-28.06089683 9.32052596 -28.06089683 9.32052596 -24.6875 7.9375 C-21.47702201 5.98781226 -21.47702201 5.98781226 -20 1 C-15.38 1 -10.76 1 -6 1 C-5.34 2.98 -4.68 4.96 -4 7 C-1.96756452 7.96877057 -1.96756452 7.96877057 0 8 C0 5.36 0 2.72 0 0 Z " fill="#33230F" transform="translate(50,16)"/>
<path d="M0 0 C3.3 0 6.6 0 10 0 C10.495 2.475 10.495 2.475 11 5 C12.175625 5.165 13.35125 5.33 14.5625 5.5 C19.96825111 6.81048512 22.99175173 10.48762759 26 15 C26 15.66 26 16.32 26 17 C23.15829669 16.57900692 21.8942552 15.91373451 19.625 14.0625 C14.12964007 9.7447172 8.10003811 9.44646058 1.328125 9.5546875 C-5.3197458 10.44419134 -10.53994228 14.09912263 -15 19 C-19.405723 25.6085845 -19.9320394 32.21011282 -19 40 C-16.77117454 47.40177385 -12.71107264 52.23773201 -6 56 C0.31774186 58.97851125 7.11285449 59.16886194 13.79296875 57.16015625 C20.92481281 53.95568169 24.67367646 49.32031515 28.3125 42.5625 C29.33867861 38.73765244 29.64686207 34.94337357 30 31 C32.97 31.99 35.94 32.98 39 34 C39 35.65 39 37.3 39 39 C37.35 39.33 35.7 39.66 34 40 C33.814375 41.051875 33.814375 41.051875 33.625 42.125 C33 45 33 45 31.875 48 C30.74122479 50.92145656 30.74122479 50.92145656 31.6875 53.5625 C32 56 32 56 30 58.875 C27 61 27 61 23.4375 60.6875 C22.303125 60.460625 21.16875 60.23375 20 60 C19.39800781 60.31324219 18.79601563 60.62648437 18.17578125 60.94921875 C15.27033634 62.35238694 12.95751923 62.19472868 9.75 62.125 C8.67234375 62.10695312 7.5946875 62.08890625 6.484375 62.0703125 C5.66453125 62.04710937 4.8446875 62.02390625 4 62 C4 62.99 4 63.98 4 65 C5.65 65.33 7.3 65.66 9 66 C9.33 65.34 9.66 64.68 10 64 C10 65.32 10 66.64 10 68 C6.7 68 3.4 68 0 68 C-0.33 66.35 -0.66 64.7 -1 63 C-2.051875 62.814375 -2.051875 62.814375 -3.125 62.625 C-6 62 -6 62 -9 60.875 C-12.18867627 59.94496942 -13.85687915 60.07555269 -17 61 C-17.66 59.68 -18.32 58.36 -19 57 C-16.525 56.505 -16.525 56.505 -14 56 C-14.33 55.34 -14.66 54.68 -15 54 C-15.78375 54.350625 -16.5675 54.70125 -17.375 55.0625 C-18.24125 55.371875 -19.1075 55.68125 -20 56 C-20.66 55.67 -21.32 55.34 -22 55 C-21.79375 54.05125 -21.5875 53.1025 -21.375 52.125 C-21.189375 50.578125 -21.189375 50.578125 -21 49 C-21.66 48.34 -22.32 47.68 -23 47 C-23.66 47.66 -24.32 48.32 -25 49 C-25.66 47.35 -26.32 45.7 -27 44 C-26.01 44.33 -25.02 44.66 -24 45 C-24 43.35 -24 41.7 -24 40 C-25.65 39.67 -27.3 39.34 -29 39 C-29 35.7 -29 32.4 -29 29 C-27.35 28.67 -25.7 28.34 -24 28 C-23.896875 27.154375 -23.79375 26.30875 -23.6875 25.4375 C-22.88755582 21.43777909 -21.96774476 18.58410653 -20 15 C-17.3125 14.0625 -17.3125 14.0625 -15 14 C-15 13.34 -15 12.68 -15 12 C-16.65 12.66 -18.3 13.32 -20 14 C-19.25 11.0625 -19.25 11.0625 -18 8 C-15.7264681 6.86323405 -14.60507238 6.81221892 -12.1875 7.5625 C-8.85710027 8.22857995 -6.19629954 6.98794713 -3 6 C-2.01 6 -1.02 6 0 6 C0 4.02 0 2.04 0 0 Z " fill="#E4C774" transform="translate(32,21)"/>
<path d="M0 0 C4.46634532 1.78967791 6.52835898 4.19364599 8.9375 8.3125 C10.48765335 13.69244397 10.78429336 17.77783547 8.875 23.1875 C6.05299253 27.42051121 2.92271008 30.35909664 -2 32 C-7.61599916 32.36826224 -11.17665989 32.21556007 -16 29 C-20.36822029 24.78525772 -21.81089512 21.55291586 -22.25 15.625 C-21.86830141 10.0903704 -19.85048107 6.5700437 -16.0625 2.625 C-11.2412823 -1.25449365 -5.88188599 -1.05347212 0 0 Z " fill="#B2D780" transform="translate(43,39)"/>
<path d="M0 0 C3.54667508 1.9907144 5.97045722 3.9615127 7.4375 7.8125 C7.9325 8.988125 7.9325 8.988125 8.4375 10.1875 C9.4275 10.5175 10.4175 10.8475 11.4375 11.1875 C12.35832395 28.04880971 12.35832395 28.04880971 8.0703125 33.57421875 C2.6542306 38.92551499 -2.03505465 42.30715175 -9.8125 42.4375 C-17.7353075 42.34355367 -22.94967926 39.54519252 -28.5625 34.1875 C-32.95078391 27.98337447 -33.28378131 21.6166975 -32.5625 14.1875 C-30.81014927 8.01204712 -26.88221774 3.66024713 -21.5625 0.1875 C-14.87444788 -3.04579672 -6.73157881 -3.25359642 0 0 Z M-24.5625 11.1875 C-26.92163751 15.11939584 -26.95322535 18.65508591 -26.5625 23.1875 C-24.74192998 29.05378117 -22.43364644 31.73710461 -17.5625 35.1875 C-12.58170617 36.84776461 -8.25976371 36.78653425 -3.375 35.0625 C0.85801121 32.24049253 3.79659664 29.11021008 5.4375 24.1875 C5.86103651 17.83445238 5.48388358 12.71489151 1.1015625 7.640625 C-3.31190008 3.80844773 -7.89600966 3.32968108 -13.61328125 3.56640625 C-18.561965 4.60857938 -21.46036174 7.31388756 -24.5625 11.1875 Z " fill="#EBDBA4" transform="translate(47.5625,34.8125)"/>
<path d="M0 0 C5.19730043 2.71612988 9.57303623 6.64045502 12 12 C13.0911454 18.76510145 12.34377046 23.73495598 8.38671875 29.34375 C7.92910156 29.8903125 7.47148438 30.436875 7 31 C6.32904297 31.85078125 6.32904297 31.85078125 5.64453125 32.71875 C4 34 4 34 -1 34 C-1 30.37 -1 26.74 -1 23 C2.96 22.505 2.96 22.505 7 22 C7.67673447 18.59679066 7.67673447 18.59679066 8 15 C6.11499729 12.68436913 6.11499729 12.68436913 3 12.75 C-0.11499729 12.68436913 -0.11499729 12.68436913 -2 15 C-2.39764263 16.98821313 -2.73775349 18.98944339 -3 21 C-4.65 21 -6.3 21 -8 21 C-8.474375 19.865625 -8.94875 18.73125 -9.4375 17.5625 C-10.63622083 14.24259834 -10.63622083 14.24259834 -12 13 C-14.33297433 12.95907063 -16.66705225 12.95758277 -19 13 C-19.04125 14.27875 -19.0825 15.5575 -19.125 16.875 C-19.14820313 17.59429688 -19.17140625 18.31359375 -19.1953125 19.0546875 C-19.18331689 21.23863645 -19.18331689 21.23863645 -17 23 C-15.01178687 23.39764263 -13.01055661 23.73775349 -11 24 C-11 27.3 -11 30.6 -11 34 C-16 34 -16 34 -18.01953125 32.48828125 C-22.72578844 26.77720226 -23.91912664 22.42137557 -23.49609375 15.03125 C-22.64015233 9.80124573 -20.77134897 6.71767172 -16.9375 3 C-16.298125 2.67 -15.65875 2.34 -15 2 C-14.01 2.33 -13.02 2.66 -12 3 C-12.9977758 5.99332739 -13.7522025 6.94766315 -16 9 C-14.68 9 -13.36 9 -12 9 C-12 7.68 -12 6.36 -12 5 C-9.03 5.33 -6.06 5.66 -3 6 C-3 5.01 -3 4.02 -3 3 C-5.64 3 -8.28 3 -11 3 C-11 2.34 -11 1.68 -11 1 C-7.22147972 -0.25950676 -3.90691115 -0.73124005 0 0 Z " fill="#EFCF74" transform="translate(77,3)"/>
<path d="M0 0 C5.61 0 11.22 0 17 0 C17 0.99 17 1.98 17 3 C17.66 3 18.32 3 19 3 C17.9024777 5.99324263 17.32317108 6.84610901 14.375 8.25 C13.59125 8.4975 12.8075 8.745 12 9 C12 11.31 12 13.62 12 16 C11.05125 16.165 10.1025 16.33 9.125 16.5 C5.97379211 17.63030433 5.97379211 17.63030433 5.0859375 19.73828125 C3.81036183 24.25381912 4.00468857 26.66926723 6 31 C-1.39163498 39.77756654 -1.39163498 39.77756654 -5.203125 40.3046875 C-7.15263283 39.95496663 -9.07850904 39.48037274 -11 39 C-13.87552456 39.44822408 -13.87552456 39.44822408 -16 41 C-16.66 42.65 -17.32 44.3 -18 46 C-23.28 46 -28.56 46 -34 46 C-34.495 43.525 -34.495 43.525 -35 41 C-39.33972931 38.0164361 -44.09217506 39.20876025 -49 40 C-49 39.34 -49 38.68 -49 38 C-49.61875 37.7525 -50.2375 37.505 -50.875 37.25 C-53.38710296 35.77229238 -53.76107344 34.56044823 -55 32 C-55.99 31.67 -56.98 31.34 -58 31 C-57.01 28.03 -56.02 25.06 -55 22 C-54.01 22 -53.02 22 -52 22 C-51.06934867 24.60582371 -50.85082593 25.64198224 -51.9375 28.25 C-52.288125 28.8275 -52.63875 29.405 -53 30 C-52.13375 29.7525 -52.13375 29.7525 -51.25 29.5 C-49 29 -49 29 -45 29 C-45 29.66 -45 30.32 -45 31 C-46.32 31.33 -47.64 31.66 -49 32 C-48.67 32.99 -48.34 33.98 -48 35 C-47.030625 34.7525 -46.06125 34.505 -45.0625 34.25 C-40.16801411 33.54935785 -36.01343709 35.23270505 -32 38 C-30.9375 40.75 -30.9375 40.75 -31 43 C-27.7 43 -24.4 43 -21 43 C-21.33 42.34 -21.66 41.68 -22 41 C-23.65 41 -25.3 41 -27 41 C-27.5625 39.0625 -27.5625 39.0625 -28 37 C-27 36 -27 36 -24.48828125 35.97265625 C-22.91626953 36.01712891 -22.91626953 36.01712891 -21.3125 36.0625 C-16.70406339 36.11710233 -13.34207999 35.58856585 -9 34 C-8.13375 34.20625 -7.2675 34.4125 -6.375 34.625 C-3.87637691 35.28700798 -3.87637691 35.28700798 -1.625 33.5 C0.37007705 31.0400792 0.37007705 31.0400792 -0.5 27.8125 C-1.16397343 22.74970257 0.11060972 19.19051323 3 15 C5.75 13.9375 5.75 13.9375 8 14 C7.979375 13.030625 7.95875 12.06125 7.9375 11.0625 C8 8 8 8 9 7 C7.88625 6.71125 6.7725 6.4225 5.625 6.125 C2 5 2 5 0 3 C0 2.01 0 1.02 0 0 Z " fill="#484035" transform="translate(63,46)"/>
<path d="M0 0 C0.33 0 0.66 0 1 0 C1 2.97 1 5.94 1 9 C0.01 9 -0.98 9 -2 9 C-2 9.66 -2 10.32 -2 11 C-4.475 10.505 -4.475 10.505 -7 10 C-7.495 8.02 -7.495 8.02 -8 6 C-11.3 5.67 -14.6 5.34 -18 5 C-18 6.98 -18 8.96 -18 11 C-18.61488281 11.13277344 -19.22976562 11.26554687 -19.86328125 11.40234375 C-21.07564453 11.66724609 -21.07564453 11.66724609 -22.3125 11.9375 C-23.11300781 12.11152344 -23.91351562 12.28554688 -24.73828125 12.46484375 C-27.145401 12.99886159 -27.145401 12.99886159 -30 14 C-32.6875 13.5625 -32.6875 13.5625 -35 13 C-35.33 14.32 -35.66 15.64 -36 17 C-34.68 17 -33.36 17 -32 17 C-32.33 17.99 -32.66 18.98 -33 20 C-34.65 20 -36.3 20 -38 20 C-38.103125 20.845625 -38.20625 21.69125 -38.3125 22.5625 C-39.11244418 26.56222091 -40.03225524 29.41589347 -42 33 C-44.6875 33.9375 -44.6875 33.9375 -47 34 C-47 37.3 -47 40.6 -47 44 C-45.35 44.33 -43.7 44.66 -42 45 C-41.67 46.65 -41.34 48.3 -41 50 C-41.99 50.495 -41.99 50.495 -43 51 C-43.33 50.34 -43.66 49.68 -44 49 C-45.98 48.34 -47.96 47.68 -50 47 C-50 41.72 -50 36.44 -50 31 C-48.35 30.34 -46.7 29.68 -45 29 C-43.4057628 25.71213859 -43.4057628 25.71213859 -43 22 C-43.66 20.35 -44.32 18.7 -45 17 C-41.7 13.7 -38.4 10.4 -35 7 C-33.96875 7.391875 -32.9375 7.78375 -31.875 8.1875 C-28.06089683 9.32052596 -28.06089683 9.32052596 -24.6875 7.9375 C-21.47702201 5.98781226 -21.47702201 5.98781226 -20 1 C-15.38 1 -10.76 1 -6 1 C-5.34 2.98 -4.68 4.96 -4 7 C-1.96756452 7.96877057 -1.96756452 7.96877057 0 8 C0 5.36 0 2.72 0 0 Z " fill="#675E4E" transform="translate(50,16)"/>
<path d="M0 0 C4.46634532 1.78967791 6.52835898 4.19364599 8.9375 8.3125 C10.48765335 13.69244397 10.78429336 17.77783547 8.875 23.1875 C6.05299253 27.42051121 2.92271008 30.35909664 -2 32 C-7.61599916 32.36826224 -11.17665989 32.21556007 -16 29 C-20.36822029 24.78525772 -21.81089512 21.55291586 -22.25 15.625 C-21.86830141 10.0903704 -19.85048107 6.5700437 -16.0625 2.625 C-11.2412823 -1.25449365 -5.88188599 -1.05347212 0 0 Z M-8 3 C-8.33 3.66 -8.66 4.32 -9 5 C-7.68 5.33 -6.36 5.66 -5 6 C-5 6.99 -5 7.98 -5 9 C-6.1446875 8.9071875 -6.1446875 8.9071875 -7.3125 8.8125 C-9.99643969 8.77062434 -9.99643969 8.77062434 -11.8125 10.25 C-13.37433428 12.19917293 -13.37433428 12.19917293 -13 16 C-13.99 16 -14.98 16 -16 16 C-15.67 13.69 -15.34 11.38 -15 9 C-16.98 9.99 -16.98 9.99 -19 11 C-19 14.3 -19 17.6 -19 21 C-18.01 21 -17.02 21 -16 21 C-16 20.34 -16 19.68 -16 19 C-14.68 19 -13.36 19 -12 19 C-12.33 19.99 -12.66 20.98 -13 22 C-14.32 22 -15.64 22 -17 22 C-15.59458486 25.39641991 -14.11507093 27.05444693 -11 29 C-6.03430802 29.90955744 -2.00754761 29.50377381 2.5 27.25 C5.60624848 24.45437637 6.78442312 22.52265355 7.37109375 18.37890625 C7.58525911 12.22044506 7.58525911 12.22044506 4.6875 6.9375 C-0.00881106 3.55178737 -2.18094486 2.78041301 -8 3 Z " fill="#23210F" transform="translate(43,39)"/>
<path d="M0 0 C2.3659809 2.12310144 3.91614368 3.73211719 4.13256836 7.00439453 C3.94536959 9.3022276 3.63115417 11.53891538 3.25 13.8125 C3.1365625 14.60076172 3.023125 15.38902344 2.90625 16.20117188 C2.62464532 18.13720407 2.31507003 20.06913161 2 22 C2.66 22 3.32 22 4 22 C4 18.7 4 15.4 4 12 C5.32 12 6.64 12 8 12 C8 15.96 8 19.92 8 24 C8.92683594 24.04898438 9.85367188 24.09796875 10.80859375 24.1484375 C12.60490234 24.26058594 12.60490234 24.26058594 14.4375 24.375 C16.22994141 24.47941406 16.22994141 24.47941406 18.05859375 24.5859375 C19.02925781 24.72257812 19.99992187 24.85921875 21 25 C21.495 25.99 21.495 25.99 22 27 C22.66 25.68 23.32 24.36 24 23 C24.125 28.75 24.125 28.75 23 31 C22.34 31 21.68 31 21 31 C20.505 30.01 20.505 30.01 20 29 C10.43 28.67 0.86 28.34 -9 28 C-9 27.01 -9 26.02 -9 25 C-9.99 24.67 -10.98 24.34 -12 24 C-8.04 23.505 -8.04 23.505 -4 23 C-4 22.67 -4 22.34 -4 22 C-2.35 22 -0.7 22 1 22 C1 18.7 1 15.4 1 12 C0.071875 12.061875 -0.85625 12.12375 -1.8125 12.1875 C-5 12 -5 12 -6.875 10.875 C-8.52854531 8.11909116 -8.39365568 6.14924548 -8 3 C-5.92056153 -0.2833239 -3.73946039 -0.72965081 0 0 Z " fill="#755539" transform="translate(65,15)"/>
<path d="M0 0 C1.9375 1.0625 1.9375 1.0625 3 3 C2.55555556 9.44444444 2.55555556 9.44444444 1 11 C-1.67058851 11.14115161 -4.32432238 11.04247107 -7 11 C-7 14.63 -7 18.26 -7 22 C-3.59687262 20.94124926 -0.98646769 19.99097846 2 18 C2 19.65 2 21.3 2 23 C2.99 23 3.98 23 5 23 C5 24.65 5 26.3 5 28 C4.34 27.67 3.68 27.34 3 27 C3 26.34 3 25.68 3 25 C1.84371094 25.01740234 1.84371094 25.01740234 0.6640625 25.03515625 C-0.84027344 25.04869141 -0.84027344 25.04869141 -2.375 25.0625 C-3.37273437 25.07410156 -4.37046875 25.08570312 -5.3984375 25.09765625 C-8 25 -8 25 -10 24 C-10 20.04 -10 16.08 -10 12 C-11.32 12 -12.64 12 -14 12 C-14 15.3 -14 18.6 -14 22 C-14.66 22 -15.32 22 -16 22 C-16.02708567 20.39592672 -16.04643483 18.7917215 -16.0625 17.1875 C-16.07410156 16.29417969 -16.08570312 15.40085937 -16.09765625 14.48046875 C-16 12 -16 12 -15 9 C-13.02 9 -11.04 9 -9 9 C-9.061875 8.071875 -9.12375 7.14375 -9.1875 6.1875 C-9 3 -9 3 -7.875 1.125 C-5.11909116 -0.52854531 -3.14924548 -0.39365568 0 0 Z " fill="#26160C" transform="translate(83,15)"/>
<path d="M0 0 C0.99 0.99 1.98 1.98 3 3 C2.34 4.98 1.68 6.96 1 9 C1.5775 8.835 2.155 8.67 2.75 8.5 C5 8 5 8 9 8 C9 8.66 9 9.32 9 10 C7.68 10.33 6.36 10.66 5 11 C5.33 11.99 5.66 12.98 6 14 C6.969375 13.7525 7.93875 13.505 8.9375 13.25 C13.2028041 12.63942477 16.29088959 13.95376678 20.1796875 15.6015625 C22 17 22 17 23 22 C26.96 22 30.92 22 35 22 C35 22.99 35 23.98 35 25 C30.05 25 25.1 25 20 25 C19.505 22.525 19.505 22.525 19 20 C14.66027069 17.0164361 9.90782494 18.20876025 5 19 C5 18.34 5 17.68 5 17 C4.38125 16.7525 3.7625 16.505 3.125 16.25 C0.61289704 14.77229238 0.23892656 13.56044823 -1 11 C-1.99 10.67 -2.98 10.34 -4 10 C-3.52449439 8.51965236 -3.04448784 7.04074979 -2.5625 5.5625 C-2.29566406 4.73878906 -2.02882813 3.91507812 -1.75390625 3.06640625 C-1 1 -1 1 0 0 Z " fill="#392D23" transform="translate(9,67)"/>
<path d="M0 0 C0.639375 0.70125 1.27875 1.4025 1.9375 2.125 C8.33872598 8.45430209 15.29351413 11.92789272 24 14 C23.34 14.66 22.68 15.32 22 16 C22 16.99 22 17.98 22 19 C23.65 19.33 25.3 19.66 27 20 C27.33 19.34 27.66 18.68 28 18 C28 19.32 28 20.64 28 22 C24.7 22 21.4 22 18 22 C17.505 19.525 17.505 19.525 17 17 C16.29875 16.87625 15.5975 16.7525 14.875 16.625 C12 16 12 16 9 14.875 C5.81132373 13.94496942 4.14312085 14.07555269 1 15 C0.34 13.68 -0.32 12.36 -1 11 C0.65 10.67 2.3 10.34 4 10 C3.67 9.34 3.34 8.68 3 8 C2.21625 8.350625 1.4325 8.70125 0.625 9.0625 C-0.24125 9.371875 -1.1075 9.68125 -2 10 C-2.66 9.67 -3.32 9.34 -4 9 C-2.25 2.25 -2.25 2.25 0 0 Z " fill="#E9CC75" transform="translate(14,67)"/>
<path d="M0 0 C1.32 0.66 2.64 1.32 4 2 C3.83886719 2.70253906 3.67773438 3.40507813 3.51171875 4.12890625 C2.27993419 11.04006388 2.11319811 18.50469575 5 25 C3.68 25.99 2.36 26.98 1 28 C0.34 27.34 -0.32 26.68 -1 26 C-1.66 26.66 -2.32 27.32 -3 28 C-3.66 26.35 -4.32 24.7 -5 23 C-4.01 23.33 -3.02 23.66 -2 24 C-2 22.35 -2 20.7 -2 19 C-3.65 18.67 -5.3 18.34 -7 18 C-7 14.7 -7 11.4 -7 8 C-5.35 7.67 -3.7 7.34 -2 7 C-1.855625 6.030625 -1.71125 5.06125 -1.5625 4.0625 C-1 1 -1 1 0 0 Z " fill="#E3C678" transform="translate(10,42)"/>
<path d="M0 0 C4.32065772 4.20987162 6.15665726 6.09538124 6.375 12.125 C6.33666698 17.96695204 4.71176466 21.56679376 1 26 C0.32904297 26.85078125 0.32904297 26.85078125 -0.35546875 27.71875 C-2 29 -2 29 -7 29 C-7 25.37 -7 21.74 -7 18 C-3.04 17.505 -3.04 17.505 1 17 C1.67673447 13.59679066 1.67673447 13.59679066 2 10 C-0.35953094 7.64046906 -1.77895617 7.50858587 -5 7 C-5 6.34 -5 5.68 -5 5 C-3.35 4.67 -1.7 4.34 0 4 C0 2.68 0 1.36 0 0 Z " fill="#EECF7A" transform="translate(83,8)"/>
<path d="M0 0 C0.66 0.99 1.32 1.98 2 3 C-5.39163498 11.77756654 -5.39163498 11.77756654 -9.203125 12.3046875 C-11.15263283 11.95496663 -13.07850904 11.48037274 -15 11 C-17.87552456 11.44822408 -17.87552456 11.44822408 -20 13 C-21.36078035 15.52372901 -21.36078035 15.52372901 -22 18 C-22.33 17.01 -22.66 16.02 -23 15 C-23.66 15 -24.32 15 -25 15 C-25.33 14.34 -25.66 13.68 -26 13 C-27.65 13 -29.3 13 -31 13 C-31.5625 11.0625 -31.5625 11.0625 -32 9 C-31 8 -31 8 -28.48828125 7.97265625 C-26.91626953 8.01712891 -26.91626953 8.01712891 -25.3125 8.0625 C-20.70406339 8.11710233 -17.34207999 7.58856585 -13 6 C-12.13375 6.20625 -11.2675 6.4125 -10.375 6.625 C-9.59125 6.74875 -8.8075 6.8725 -8 7 C-6.6256709 5.70896357 -5.29103643 4.3743291 -4 3 C-2.68 3 -1.36 3 0 3 C0 2.01 0 1.02 0 0 Z " fill="#5A514C" transform="translate(67,74)"/>
<path d="M0 0 C3.90604537 1.26682552 5.90166803 2.43283565 8 6 C9.92847188 10.90883752 9.59382046 16.31750869 7.875 21.1875 C5.05299253 25.42051121 1.92271008 28.35909664 -3 30 C-7.95337583 30.23967948 -11.48141403 30.25929298 -16 28 C-16 27.01 -16 26.02 -16 25 C-15.1646875 25.23976563 -15.1646875 25.23976563 -14.3125 25.484375 C-11.82348701 26.03935763 -9.54876539 26.20337624 -7 26.25 C-6.154375 26.27578125 -5.30875 26.3015625 -4.4375 26.328125 C-1.51539877 25.93476522 -0.24797484 24.84101388 2 23 C2.66 23 3.32 23 4 23 C5.41633313 18.06605262 5.71000727 13.0833499 5 8 C2.66663334 4.99666733 2.66663334 4.99666733 0 3 C0 2.01 0 1.02 0 0 Z " fill="#24210F" transform="translate(44,41)"/>
<path d="M0 0 C1.76923828 0.01353516 1.76923828 0.01353516 3.57421875 0.02734375 C4.47785156 0.03894531 5.38148437 0.05054688 6.3125 0.0625 C2.96310119 2.08808881 0.44287449 2.27988987 -3.4375 2.1875 C-4.42234375 2.16945312 -5.4071875 2.15140625 -6.421875 2.1328125 C-7.54335937 2.09800781 -7.54335937 2.09800781 -8.6875 2.0625 C-8.6875 2.7225 -8.6875 3.3825 -8.6875 4.0625 C-6.7075 3.7325 -4.7275 3.4025 -2.6875 3.0625 C-3.6775 3.3925 -4.6675 3.7225 -5.6875 4.0625 C-5.6875 4.7225 -5.6875 5.3825 -5.6875 6.0625 C-3.0475 6.0625 -0.4075 6.0625 2.3125 6.0625 C2.3125 7.0525 2.3125 8.0425 2.3125 9.0625 C-4.4375 9.1875 -4.4375 9.1875 -6.6875 8.0625 C-6.6875 9.3825 -6.6875 10.7025 -6.6875 12.0625 C-8.0075 12.0625 -9.3275 12.0625 -10.6875 12.0625 C-10.0275 10.4125 -9.3675 8.7625 -8.6875 7.0625 C-11.82404682 6.71193002 -11.82404682 6.71193002 -13.796875 9.13671875 C-15.969161 12.49837622 -16.45840113 14.92243433 -16.9375 18.875 C-17.08703125 20.03644531 -17.2365625 21.19789062 -17.390625 22.39453125 C-17.48859375 23.27496094 -17.5865625 24.15539062 -17.6875 25.0625 C-18.0175 25.0625 -18.3475 25.0625 -18.6875 25.0625 C-18.6875 22.0925 -18.6875 19.1225 -18.6875 16.0625 C-19.3475 16.0625 -20.0075 16.0625 -20.6875 16.0625 C-20.15205772 11.51124062 -18.51028978 8.64820594 -15.6875 5.0625 C-10.28818665 0.98546747 -6.69436939 -0.06628089 0 0 Z " fill="#4F4842" transform="translate(71.6875,-0.0625)"/>
<path d="M0 0 C1.65 1.65 3.3 3.3 5 5 C4.566875 6.051875 4.566875 6.051875 4.125 7.125 C2.97866412 10.05452503 1.97374346 13.00921653 1 16 C-0.65 16.33 -2.3 16.66 -4 17 C-4 20.3 -4 23.6 -4 27 C-2.35 27.33 -0.7 27.66 1 28 C1.33 29.65 1.66 31.3 2 33 C1.01 33.495 1.01 33.495 0 34 C-0.33 33.34 -0.66 32.68 -1 32 C-2.98 31.34 -4.96 30.68 -7 30 C-7 24.72 -7 19.44 -7 14 C-5.35 13.34 -3.7 12.68 -2 12 C-0.39260777 7.94324817 0.2636763 4.35065901 0 0 Z " fill="#342A1D" transform="translate(7,33)"/>
<path d="M0 0 C2.03125 0.05078125 2.03125 0.05078125 4.5 0.3125 C5.3146875 0.39113281 6.129375 0.46976563 6.96875 0.55078125 C7.97421875 0.77314453 7.97421875 0.77314453 9 1 C9.33 1.66 9.66 2.32 10 3 C9.34 3 8.68 3 8 3 C8 4.32 8 5.64 8 7 C6.57103271 8.29906117 5.12996555 9.59144134 3.59375 10.76171875 C1.80993486 12.08883798 1.80993486 12.08883798 -0.25 14.3125 C-2 16 -2 16 -4 16 C-3.67 13.36 -3.34 10.72 -3 8 C-1.35 7.67 0.3 7.34 2 7 C2 6.34 2 5.68 2 5 C0.35 5.66 -1.3 6.32 -3 7 C-1.125 1.125 -1.125 1.125 0 0 Z " fill="#EBCF78" transform="translate(15,28)"/>
<path d="M0 0 C3.54663209 5.31994814 2.0454475 11.93267074 1 18 C-1.74510125 24.97059639 -7.21809239 29.93758151 -14 33 C-16.56733222 33.43729285 -18.38681748 33.33359777 -21 33 C-21 32.34 -21 31.68 -21 31 C-20.14728516 30.77957031 -20.14728516 30.77957031 -19.27734375 30.5546875 C-12.28693845 28.52408563 -7.21247211 25.6519118 -3.37890625 19.32421875 C-1.74617461 15.38808666 -1.22746733 11.83558591 -0.8125 7.625 C-0.73064453 6.88894531 -0.64878906 6.15289062 -0.56445312 5.39453125 C-0.36607444 3.59745375 -0.18159423 1.79885107 0 0 Z " fill="#231507" transform="translate(60,46)"/>
<path d="M0 0 C3.125 0.25 3.125 0.25 5.0625 1.3125 C6.77287795 4.43142449 5.93013863 6.90557801 5.125 10.25 C4.135 10.745 4.135 10.745 3.125 11.25 C3.125 10.59 3.125 9.93 3.125 9.25 C0.815 9.25 -1.495 9.25 -3.875 9.25 C-3.875 7.93 -3.875 6.61 -3.875 5.25 C-4.535 5.25 -5.195 5.25 -5.875 5.25 C-3.48114934 0.30270864 -3.48114934 0.30270864 0 0 Z " fill="#302009" transform="translate(79.875,14.75)"/>
<path d="M0 0 C0.66 0 1.32 0 2 0 C2.07476562 0.7734375 2.14953125 1.546875 2.2265625 2.34375 C3.07013824 9.02619313 4.26972067 13.38719521 8.7578125 18.4765625 C10 20 10 20 10 22 C11.65 22 13.3 22 15 22 C15 22.33 15 22.66 15 23 C10.71 23 6.42 23 2 23 C2.33 22.01 2.66 21.02 3 20 C4.32 20.66 5.64 21.32 7 22 C5.9015258 20.53737408 4.7959964 19.08004497 3.6875 17.625 C3.07261719 16.81289063 2.45773438 16.00078125 1.82421875 15.1640625 C0.00519317 12.80220611 0.00519317 12.80220611 -3 11 C-3 10.34 -3 9.68 -3 9 C-2.01 9 -1.02 9 0 9 C0 6.03 0 3.06 0 0 Z " fill="#2E1D0A" transform="translate(51,16)"/>
<path d="M0 0 C5.61 0 11.22 0 17 0 C15 4 15 4 12 6 C5.05055811 6.55154301 5.05055811 6.55154301 1.5 4.6875 C0 3 0 3 0 0 Z " fill="#A57549" transform="translate(63,46)"/>
<path d="M0 0 C2.50357861 0.8345262 4.66785852 1.79371992 7 3 C6.67 3.99 6.34 4.98 6 6 C5.030625 6.28875 4.06125 6.5775 3.0625 6.875 C-0.21128486 7.68861556 -0.21128486 7.68861556 -1.375 10.625 C-1.58125 11.40875 -1.7875 12.1925 -2 13 C-2.99 13 -3.98 13 -5 13 C-5 11.02 -5 9.04 -5 7 C-5.66 6.67 -6.32 6.34 -7 6 C-2.25 1.125 -2.25 1.125 0 0 Z " fill="#A4BB77" transform="translate(32,42)"/>
<path d="M0 0 C0.99 0.33 1.98 0.66 3 1 C2.525625 1.7425 2.05125 2.485 1.5625 3.25 C0.22130673 5.61050015 -0.512312 7.36648477 -1 10 C0.32 10 1.64 10 3 10 C2.67 10.99 2.34 11.98 2 13 C0.35 13 -1.3 13 -3 13 C-3.33 13.66 -3.66 14.32 -4 15 C-4.99 13.68 -5.98 12.36 -7 11 C-7.66 11.66 -8.32 12.32 -9 13 C-9.33 12.01 -9.66 11.02 -10 10 C-6.7 6.7 -3.4 3.4 0 0 Z " fill="#615853" transform="translate(15,23)"/>
<path d="M0 0 C1.32 0 2.64 0 4 0 C4.5427865 13.54955923 4.5427865 13.54955923 1 19 C0.31471955 20.65910004 -0.35891863 22.32332564 -1 24 C-1.66 24 -2.32 24 -3 24 C-3.2506581 20.49078657 -3.26990531 18.47233429 -1.5 15.375 C0.73955634 10.33599824 0.23745255 5.43502502 0 0 Z " fill="#382E23" transform="translate(88,14)"/>
<path d="M0 0 C0.99 0.99 1.98 1.98 3 3 C2.34 4.98 1.68 6.96 1 9 C1.5775 8.835 2.155 8.67 2.75 8.5 C5 8 5 8 9 8 C9 8.66 9 9.32 9 10 C7.02 10.66 5.04 11.32 3 12 C3.66 13.65 4.32 15.3 5 17 C1.48144841 15.59257936 0.61387166 14.33533477 -1 11 C-1.99 10.67 -2.98 10.34 -4 10 C-3.52449439 8.51965236 -3.04448784 7.04074979 -2.5625 5.5625 C-2.29566406 4.73878906 -2.02882813 3.91507812 -1.75390625 3.06640625 C-1 1 -1 1 0 0 Z " fill="#686460" transform="translate(9,67)"/>
<path d="M0 0 C0.66 0 1.32 0 2 0 C2 1.32 2 2.64 2 4 C4.31 4 6.62 4 9 4 C9 4.66 9 5.32 9 6 C6.69 6 4.38 6 2 6 C2 7.98 2 9.96 2 12 C1.34 11.67 0.68 11.34 0 11 C0 9.35 0 7.7 0 6 C-1.65 6 -3.3 6 -5 6 C-5 9.63 -5 13.26 -5 17 C-5.66 17 -6.32 17 -7 17 C-7.02708567 15.39592672 -7.04643483 13.7917215 -7.0625 12.1875 C-7.07410156 11.29417969 -7.08570312 10.40085937 -7.09765625 9.48046875 C-7 7 -7 7 -6 4 C-4.02 4 -2.04 4 0 4 C0 2.68 0 1.36 0 0 Z " fill="#120803" transform="translate(74,20)"/>
<path d="M0 0 C1.63001953 0.01353516 1.63001953 0.01353516 3.29296875 0.02734375 C4.12441406 0.03894531 4.95585938 0.05054688 5.8125 0.0625 C6.375 2 6.375 2 6.8125 4.0625 C5.8125 5.0625 5.8125 5.0625 2.87109375 5.16015625 C1.07865234 5.14275391 1.07865234 5.14275391 -0.75 5.125 C-2.54630859 5.11146484 -2.54630859 5.11146484 -4.37890625 5.09765625 C-5.30574219 5.08605469 -6.23257812 5.07445312 -7.1875 5.0625 C-7.1875 4.0725 -7.1875 3.0825 -7.1875 2.0625 C-7.8475 1.7325 -8.5075 1.4025 -9.1875 1.0625 C-5.90230525 -0.03256492 -3.45086585 -0.03710608 0 0 Z " fill="#F7E7A9" transform="translate(37.1875,32.9375)"/>
<path d="M0 0 C2.0078125 0.1328125 2.0078125 0.1328125 5.0078125 1.1328125 C5.0078125 1.7928125 5.0078125 2.4528125 5.0078125 3.1328125 C5.9978125 3.4628125 6.9878125 3.7928125 8.0078125 4.1328125 C7.0178125 4.4628125 6.0278125 4.7928125 5.0078125 5.1328125 C3.78911321 7.63728766 3.78911321 7.63728766 3.0078125 10.1328125 C2.6778125 9.1428125 2.3478125 8.1528125 2.0078125 7.1328125 C1.3478125 7.1328125 0.6878125 7.1328125 0.0078125 7.1328125 C-0.3221875 6.4728125 -0.6521875 5.8128125 -0.9921875 5.1328125 C-2.6421875 5.1328125 -4.2921875 5.1328125 -5.9921875 5.1328125 C-6.5546875 3.1953125 -6.5546875 3.1953125 -6.9921875 1.1328125 C-5.11159717 -0.74777783 -2.49328712 0.00920032 0 0 Z " fill="#978151" transform="translate(41.9921875,81.8671875)"/>
<path d="M0 0 C1.98 0 3.96 0 6 0 C6 0.33 6 0.66 6 1 C4.35 1 2.7 1 1 1 C1.33 2.65 1.66 4.3 2 6 C2.66 5.34 3.32 4.68 4 4 C6.625 4.375 6.625 4.375 9 5 C8.67 3.68 8.34 2.36 8 1 C8.66 1 9.32 1 10 1 C10.33 1.99 10.66 2.98 11 4 C9.9609375 5.82421875 9.9609375 5.82421875 8.375 7.6875 C7.86710937 8.31011719 7.35921875 8.93273438 6.8359375 9.57421875 C5 11 5 11 0 11 C0 7.37 0 3.74 0 0 Z " fill="#DDC06E" transform="translate(76,26)"/>
<path d="M0 0 C1.875 1.25 1.875 1.25 3 3 C2.6875 5.1875 2.6875 5.1875 2 7 C1.34 6.01 0.68 5.02 0 4 C-2.58380177 3.74969023 -2.58380177 3.74969023 -5 4 C-5.33 5.32 -5.66 6.64 -6 8 C-3.69 8.33 -1.38 8.66 1 9 C1 9.66 1 10.32 1 11 C-2.375 11.125 -2.375 11.125 -6 11 C-8 9 -8 9 -8.3125 6.0625 C-8 3 -8 3 -6.8125 1.125 C-4.34492892 -0.40659584 -2.85480169 -0.42822025 0 0 Z " fill="#221404" transform="translate(65,15)"/>
<path d="M0 0 C2.76276177 0.52268466 5.3260876 1.10869587 8 2 C8 2.66 8 3.32 8 4 C11.96 4 15.92 4 20 4 C20 4.99 20 5.98 20 7 C15.05 7 10.1 7 5 7 C4.67 5.35 4.34 3.7 4 2 C2.03241727 0.63979849 2.03241727 0.63979849 0 0 Z " fill="#564E46" transform="translate(24,85)"/>
<path d="M0 0 C7.92 0 15.84 0 24 0 C24 0.66 24 1.32 24 2 C23.01 2 22.02 2 21 2 C21 2.99 21 3.98 21 5 C19.35 5.33 17.7 5.66 16 6 C16.66 4.68 17.32 3.36 18 2 C12.39 2 6.78 2 1 2 C0.67 1.34 0.34 0.68 0 0 Z " fill="#20130F" transform="translate(62,44)"/>
<path d="M0 0 C1.41623216 -0.05447047 2.83308191 -0.09300508 4.25 -0.125 C5.03890625 -0.14820312 5.8278125 -0.17140625 6.640625 -0.1953125 C9.20731941 0.0171622 10.7916067 0.71345895 13 2 C12.01 2.495 12.01 2.495 11 3 C11 3.99 11 4.98 11 6 C12.65 6.33 14.3 6.66 16 7 C16.33 6.34 16.66 5.68 17 5 C17 6.32 17 7.64 17 9 C13.7 9 10.4 9 7 9 C6.67 6.69 6.34 4.38 6 2 C3.03 1.505 3.03 1.505 0 1 C0 0.67 0 0.34 0 0 Z " fill="#F3D57D" transform="translate(25,80)"/>
<path d="M0 0 C0.85271484 0.30744141 0.85271484 0.30744141 1.72265625 0.62109375 C6.5084454 2.29092669 10.95943201 3.46376936 16 4 C16 4.66 16 5.32 16 6 C17.32 6.33 18.64 6.66 20 7 C11.29942593 7.6727248 5.44638025 6.61280192 -2 2 C-1.34 1.34 -0.68 0.68 0 0 Z " fill="#34250F" transform="translate(23,73)"/>
<path d="M0 0 C0.99 0.33 1.98 0.66 3 1 C3 1.99 3 2.98 3 4 C1.72942818 4.47985967 0.45853152 4.9588593 -0.8125 5.4375 C-1.87404297 5.83775391 -1.87404297 5.83775391 -2.95703125 6.24609375 C-4.62672396 6.86225186 -6.31157704 7.43719235 -8 8 C-10.38561992 6.52652887 -11.73867769 5.52264461 -13 3 C-11.96875 3.061875 -10.9375 3.12375 -9.875 3.1875 C-5.73643884 2.98724704 -3.61135494 1.88775372 0 0 Z " fill="#47403A" transform="translate(28,22)"/>
<path d="M0 0 C0.33 0 0.66 0 1 0 C1 2.97 1 5.94 1 9 C0.01 9 -0.98 9 -2 9 C-2 9.66 -2 10.32 -2 11 C-3.65 10.67 -5.3 10.34 -7 10 C-7.33 8.68 -7.66 7.36 -8 6 C-11.3 5.67 -14.6 5.34 -18 5 C-18 4.67 -18 4.34 -18 4 C-17.22914062 3.93941406 -16.45828125 3.87882812 -15.6640625 3.81640625 C-14.66117188 3.73261719 -13.65828125 3.64882813 -12.625 3.5625 C-11.62726562 3.48128906 -10.62953125 3.40007813 -9.6015625 3.31640625 C-7.02072387 3.15034374 -7.02072387 3.15034374 -5 2 C-4.67 3.65 -4.34 5.3 -4 7 C-2.68 7.33 -1.36 7.66 0 8 C0 5.36 0 2.72 0 0 Z " fill="#635847" transform="translate(50,16)"/>
<path d="M0 0 C2.64752004 2.57784846 4.94432065 4.91648098 7 8 C6.071875 7.95875 5.14375 7.9175 4.1875 7.875 C0.84190281 7.72863661 0.84190281 7.72863661 -2 10 C-2.66 9.67 -3.32 9.34 -4 9 C-2.25 2.25 -2.25 2.25 0 0 Z " fill="#EFD17B" transform="translate(14,67)"/>
<path d="M0 0 C0.66 0.99 1.32 1.98 2 3 C0.84826645 5.46800047 -0.04783565 7.04783565 -2 9 C-4.625 8.625 -4.625 8.625 -7 8 C-6.1875 5.0625 -6.1875 5.0625 -5 2 C-4.01 1.67 -3.02 1.34 -2 1 C-1.34 1.33 -0.68 1.66 0 2 C0 1.34 0 0.68 0 0 Z " fill="#C6AB64" transform="translate(61,73)"/>
<path d="M0 0 C0 0.66 0 1.32 0 2 C-0.66386719 2.24234375 -1.32773437 2.4846875 -2.01171875 2.734375 C-6.95731756 4.61153659 -11.07130813 6.33322093 -15 10 C-15 8.68 -15 7.36 -15 6 C-10.7513132 1.88349457 -6.02964303 -0.92763739 0 0 Z " fill="#261608" transform="translate(34,31)"/>
<path d="M0 0 C1.32 0.33 2.64 0.66 4 1 C3.01 1 2.02 1 1 1 C1 1.66 1 2.32 1 3 C3.64 3 6.28 3 9 3 C9 3.99 9 4.98 9 6 C2.25 6.125 2.25 6.125 0 5 C0 6.32 0 7.64 0 9 C-1.32 9 -2.64 9 -4 9 C-2.80100302 5.9168649 -1.52299523 2.93720508 0 0 Z " fill="#A38849" transform="translate(65,3)"/>
<path d="M0 0 C-0.25 1.875 -0.25 1.875 -1 4 C-3.0625 5.25 -3.0625 5.25 -5 6 C-5 6.99 -5 7.98 -5 9 C-6.65 9 -8.3 9 -10 9 C-9.5047783 5.33535945 -8.9791794 3.29167646 -6 1 C-3 0 -3 0 0 0 Z " fill="#F7E6A5" transform="translate(28,37)"/>
<path d="M0 0 C0.33 0 0.66 0 1 0 C1.125 5.75 1.125 5.75 0 8 C-0.66 8 -1.32 8 -2 8 C-2.33 6.35 -2.66 4.7 -3 3 C-12.24 3 -21.48 3 -31 3 C-31 2.67 -31 2.34 -31 2 C-21.43 2 -11.86 2 -2 2 C-1.67 2.66 -1.34 3.32 -1 4 C-0.67 2.68 -0.34 1.36 0 0 Z " fill="#996D4B" transform="translate(88,38)"/>
<path d="M0 0 C-1.0975223 2.99324263 -1.67682892 3.84610901 -4.625 5.25 C-5.40875 5.4975 -6.1925 5.745 -7 6 C-7 8.31 -7 10.62 -7 13 C-9.89932357 10.60490662 -10.50168276 8.68754757 -11 5 C-3.74193548 0 -3.74193548 0 0 0 Z " fill="#57524A" transform="translate(82,49)"/>
<path d="M0 0 C1.04449911 3.13349732 0.93423645 3.98968256 0 7 C0.99 7.33 1.98 7.66 3 8 C3.33 8.66 3.66 9.32 4 10 C2.68 10 1.36 10 0 10 C0 10.66 0 11.32 0 12 C-0.99 12 -1.98 12 -3 12 C-3.08090971 10.37581255 -3.13914995 8.75048255 -3.1875 7.125 C-3.22230469 6.22007813 -3.25710937 5.31515625 -3.29296875 4.3828125 C-3.19628906 3.59648438 -3.09960938 2.81015625 -3 2 C-2.01 1.34 -1.02 0.68 0 0 Z " fill="#ABCA80" transform="translate(27,48)"/>
<path d="M0 0 C1.32 0 2.64 0 4 0 C4 3.3 4 6.6 4 10 C3.34 9.34 2.68 8.68 2 8 C1.34 9.65 0.68 11.3 0 13 C-0.33 13 -0.66 13 -1 13 C-1.22162329 11.37675914 -1.42689803 9.751279 -1.625 8.125 C-1.74101563 7.22007813 -1.85703125 6.31515625 -1.9765625 5.3828125 C-1.98429687 4.59648438 -1.99203125 3.81015625 -2 3 C-1.34 2.34 -0.68 1.68 0 1 C0 0.67 0 0.34 0 0 Z " fill="#FCEBAF" transform="translate(55,46)"/>
<path d="M0 0 C1.65 0 3.3 0 5 0 C5 2.64 5 5.28 5 8 C4.01 8.33 3.02 8.66 2 9 C1.34 8.67 0.68 8.34 0 8 C0 5.36 0 2.72 0 0 Z " fill="#FAE7AC" transform="translate(15,52)"/>
<path d="M0 0 C2 1 2 1 2 1 Z M-6.15234375 0.90234375 C-4.1015625 0.93489583 -2.05078125 0.96744792 0 1 C0.5625 2.9375 0.5625 2.9375 1 5 C0 6 0 6 -3.5625 6.0625 C-4.696875 6.041875 -5.83125 6.02125 -7 6 C-7.66 4.68 -8.32 3.36 -9 2 C-8 1 -8 1 -6.15234375 0.90234375 Z " fill="#FBEAB0" transform="translate(41,71)"/>
<path d="M0 0 C-0.33 1.32 -0.66 2.64 -1 4 C-1 3.34 -1 2.68 -1 2 C-1.66 2 -2.32 2 -3 2 C-2.67 3.32 -2.34 4.64 -2 6 C-3.1446875 5.9071875 -3.1446875 5.9071875 -4.3125 5.8125 C-7.04525312 5.74101915 -7.04525312 5.74101915 -8.8125 7.5 C-9.204375 7.995 -9.59625 8.49 -10 9 C-10 6.69 -10 4.38 -10 2 C-3.375 0 -3.375 0 0 0 Z " fill="#F8D579" transform="translate(87,25)"/>
<path d="M0 0 C1.06723961 3.46222615 1.10173486 6.64039266 1.0625 10.25 C1.05347656 11.32765625 1.04445313 12.4053125 1.03515625 13.515625 C1.02355469 14.33546875 1.01195313 15.1553125 1 16 C0.01 16 -0.98 16 -2 16 C-3.52800174 12.40919591 -4.40862934 10.33120487 -3.2421875 6.53125 C-2.23486269 4.30527349 -1.17523814 2.14165297 0 0 Z " fill="#2F2515" transform="translate(66,61)"/>
<path d="M0 0 C2.64 0 5.28 0 8 0 C8.6875 1.8125 8.6875 1.8125 9 4 C7.5625 5.75 7.5625 5.75 6 7 C3.95880212 5.38405168 1.95927063 3.7143618 0 2 C0 1.34 0 0.68 0 0 Z " fill="#F9E7AC" transform="translate(44,38)"/>
<path d="M0 0 C1.65 0 3.3 0 5 0 C6.42258812 3.82320557 7.24042276 6.91281305 7 11 C8.98 10.67 10.96 10.34 13 10 C13 10.66 13 11.32 13 12 C11.02 12 9.04 12 7 12 C6.67 12.66 6.34 13.32 6 14 C5.34 13.67 4.68 13.34 4 13 C4 9.04 4 5.08 4 1 C2.68 0.67 1.36 0.34 0 0 Z " fill="#48371A" transform="translate(69,26)"/>
<path d="M0 0 C1.32 0 2.64 0 4 0 C4 3.3 4 6.6 4 10 C2.68 10 1.36 10 0 10 C0 6.7 0 3.4 0 0 Z " fill="#E0C67C" transform="translate(69,27)"/>
<path d="M0 0 C2.64 0.66 5.28 1.32 8 2 C8 3.32 8 4.64 8 6 C5.6739143 6.38063221 3.33944736 6.71269945 1 7 C0 6 0 6 -0.0625 2.9375 C-0.041875 1.968125 -0.02125 0.99875 0 0 Z " fill="#F4D479" transform="translate(63,53)"/>
<path d="M0 0 C2.64 0 5.28 0 8 0 C8 1.65 8 3.3 8 5 C8.66 5.33 9.32 5.66 10 6 C10 6.66 10 7.32 10 8 C7.36 8 4.72 8 2 8 C2.33 7.34 2.66 6.68 3 6 C3.66 6 4.32 6 5 6 C5 4.68 5 3.36 5 2 C3.35 1.67 1.7 1.34 0 1 C0 0.67 0 0.34 0 0 Z " fill="#F6D97F" transform="translate(34,21)"/>
<path d="M0 0 C-0.66 1.32 -1.32 2.64 -2 4 C-1.34 4.33 -0.68 4.66 0 5 C-2.31 5.66 -4.62 6.32 -7 7 C-7.93423645 3.98968256 -8.04449911 3.13349732 -7 0 C-3.86650268 -1.04449911 -3.01031744 -0.93423645 0 0 Z " fill="#EADBA0" transform="translate(48,70)"/>
<path d="M0 0 C5.61 0 11.22 0 17 0 C15 4 15 4 13 5 C10.375 4.0625 10.375 4.0625 8 3 C8 2.34 8 1.68 8 1 C5.36 1 2.72 1 0 1 C0 0.67 0 0.34 0 0 Z " fill="#AB7951" transform="translate(63,46)"/>
<path d="M0 0 C0 0.66 0 1.32 0 2 C-0.969375 2.61875 -1.93875 3.2375 -2.9375 3.875 C-6.10540099 5.65036352 -6.10540099 5.65036352 -6.875 8.25 C-6.91625 8.8275 -6.9575 9.405 -7 10 C-7.99 10 -8.98 10 -10 10 C-9.73727987 6.14677136 -9.42708562 4.43862847 -6.6875 1.625 C-4 0 -4 0 0 0 Z " fill="#1C270B" transform="translate(37,45)"/>
<path d="M0 0 C0.268125 0.5775 0.53625 1.155 0.8125 1.75 C2.01719859 4.0325868 3.40798115 5.9737942 5 8 C3.02 8.99 3.02 8.99 1 10 C1 12.31 1 14.62 1 17 C0.67 17 0.34 17 0 17 C-0.33692785 15.39658445 -0.66941093 13.79223445 -1 12.1875 C-1.185625 11.29417969 -1.37125 10.40085937 -1.5625 9.48046875 C-2.25618998 5.5474943 -1.90108454 3.44571573 0 0 Z " fill="#DCCD98" transform="translate(53,40)"/>
<path d="M0 0 C1.66611905 -0.042721 3.33382885 -0.04063832 5 0 C6 1 6 1 6.0625 3.5625 C6.041875 4.366875 6.02125 5.17125 6 6 C3.69 5.67 1.38 5.34 -1 5 C-0.67 3.35 -0.34 1.7 0 0 Z " fill="#D6B971" transform="translate(60,18)"/>
<path d="M0 0 C1.65 1.65 3.3 3.3 5 5 C4.34 6.65 3.68 8.3 3 10 C2.01 10 1.02 10 0 10 C0 10.66 0 11.32 0 12 C-0.66 11.67 -1.32 11.34 -2 11 C-1.67 10.113125 -1.34 9.22625 -1 8.3125 C-0.08777857 5.29076653 0.18330958 3.11626294 0 0 Z " fill="#49423A" transform="translate(7,33)"/>
<path d="M0 0 C0.93423645 3.01031744 1.04449911 3.86650268 0 7 C-0.22179785 8.89212737 -0.40614015 10.78884472 -0.5625 12.6875 C-0.64628906 13.68136719 -0.73007813 14.67523438 -0.81640625 15.69921875 C-0.87699219 16.45847656 -0.93757813 17.21773437 -1 18 C-2.98 18 -4.96 18 -7 18 C-7 17.67 -7 17.34 -7 17 C-5.35 17 -3.7 17 -2 17 C-2 13.7 -2 10.4 -2 7 C-3.98 7 -5.96 7 -8 7 C-8 6.67 -8 6.34 -8 6 C-6.02 6 -4.04 6 -2 6 C-2 4.35 -2 2.7 -2 1 C-1.34 0.67 -0.68 0.34 0 0 Z " fill="#534524" transform="translate(68,20)"/>
<path d="M0 0 C-0.99 0.495 -0.99 0.495 -2 1 C-1.01 1.33 -0.02 1.66 1 2 C1 3.65 1 5.3 1 7 C0.67 6.01 0.34 5.02 0 4 C-0.70125 3.87625 -1.4025 3.7525 -2.125 3.625 C-5.19635318 2.95731453 -8.0674358 2.13303617 -11 1 C-11.33 0.34 -11.66 -0.32 -12 -1 C-3.42857143 -2.42857143 -3.42857143 -2.42857143 0 0 Z " fill="#DDC174" transform="translate(31,80)"/>
<path d="M0 0 C1.95803507 -0.05389087 3.91648909 -0.09274217 5.875 -0.125 C7.51082031 -0.15980469 7.51082031 -0.15980469 9.1796875 -0.1953125 C12 0 12 0 14 2 C10.64672361 4.23551759 10.09256343 4.17283528 6.3125 3.625 C5.50425781 3.51414063 4.69601563 3.40328125 3.86328125 3.2890625 C3.24839844 3.19367187 2.63351563 3.09828125 2 3 C2 2.34 2 1.68 2 1 C1.34 0.67 0.68 0.34 0 0 Z " fill="#31311C" transform="translate(31,39)"/>
<path d="M0 0 C0.66 0 1.32 0 2 0 C2.33 3.63 2.66 7.26 3 11 C2.01 11.66 1.02 12.32 0 13 C-0.99 12.34 -1.98 11.68 -3 11 C-3 10.34 -3 9.68 -3 9 C-2.01 9 -1.02 9 0 9 C0 6.03 0 3.06 0 0 Z " fill="#160D06" transform="translate(51,16)"/>
<path d="M0 0 C1.8871875 0.0309375 1.8871875 0.0309375 3.8125 0.0625 C3.8125 1.3825 3.8125 2.7025 3.8125 4.0625 C2.8225 4.3925 1.8325 4.7225 0.8125 5.0625 C0.8125 4.4025 0.8125 3.7425 0.8125 3.0625 C-1.8275 3.0625 -4.4675 3.0625 -7.1875 3.0625 C-7.1875 2.4025 -7.1875 1.7425 -7.1875 1.0625 C-4.43671116 0.14557039 -2.82801087 -0.04636083 0 0 Z " fill="#E5C776" transform="translate(73.1875,2.9375)"/>
<path d="M0 0 C0 0.66 0 1.32 0 2 C-3.3 2.33 -6.6 2.66 -10 3 C-9 0 -9 0 -7.25 -1.3125 C-4.22513532 -2.23676421 -2.76271632 -1.38135816 0 0 Z " fill="#35281C" transform="translate(57,82)"/>
<path d="M0 0 C1.67542976 0.28604898 3.34385343 0.61781233 5 1 C5 2.32 5 3.64 5 5 C3.02 5.33 1.04 5.66 -1 6 C-1.042721 4.33388095 -1.04063832 2.66617115 -1 1 C-0.67 0.67 -0.34 0.34 0 0 Z " fill="#E6CB7D" transform="translate(78,18)"/>
<path d="M0 0 C2 2 2 2 2.265625 4.53125 C2.26046875 5.5109375 2.2553125 6.490625 2.25 7.5 C2.25515625 8.4796875 2.2603125 9.459375 2.265625 10.46875 C2 13 2 13 0 15 C0 14.01 0 13.02 0 12 C-0.66 12 -1.32 12 -2 12 C-1.125 6.25 -1.125 6.25 0 4 C0 2.68 0 1.36 0 0 Z " fill="#D4BA72" transform="translate(87,13)"/>
<path d="M0 0 C3.79379058 1.49041773 5.68343758 3.69062512 8 7 C8 7.66 8 8.32 8 9 C4.86493389 8.66410006 3.974751 7.97334828 1.75 5.625 C0 3 0 3 0 0 Z " fill="#271808" transform="translate(15,65)"/>
<path d="M0 0 C0.99 0.495 0.99 0.495 2 1 C2 2.98 2 4.96 2 7 C4.31 7 6.62 7 9 7 C8.34 7.66 7.68 8.32 7 9 C6.01 9 5.02 9 4 9 C3.67 10.65 3.34 12.3 3 14 C0.37625198 8.75250397 -0.09534716 5.91152367 0 0 Z " fill="#D4B771" transform="translate(62,52)"/>
<path d="M0 0 C1.63001953 0.01353516 1.63001953 0.01353516 3.29296875 0.02734375 C4.12441406 0.03894531 4.95585938 0.05054687 5.8125 0.0625 C6.1425 1.0525 6.4725 2.0425 6.8125 3.0625 C1.5325 3.0625 -3.7475 3.0625 -9.1875 3.0625 C-9.1875 2.4025 -9.1875 1.7425 -9.1875 1.0625 C-5.90230525 -0.03256492 -3.45086585 -0.03710608 0 0 Z " fill="#1B1203" transform="translate(72.1875,0.9375)"/>
<path d="M0 0 C0.66 0 1.32 0 2 0 C1.43518386 3.95371299 0.28003407 6.71675094 -2 10 C-2.99 10.495 -2.99 10.495 -4 11 C-4.125 5.25 -4.125 5.25 -3 3 C-2.34 3 -1.68 3 -1 3 C-0.67 2.01 -0.34 1.02 0 0 Z " fill="#5C5956" transform="translate(89,27)"/>
<path d="M0 0 C0.66 0 1.32 0 2 0 C1.45773019 3.79588866 -0.20127563 5.47211993 -3 8 C-3.99 7.67 -4.98 7.34 -6 7 C-4.625 5 -4.625 5 -3 3 C-2.34 3 -1.68 3 -1 3 C-0.67 2.01 -0.34 1.02 0 0 Z " fill="#1B1806" transform="translate(49,61)"/>
<path d="M0 0 C0.66 0.33 1.32 0.66 2 1 C1.30058404 4.14737182 0.23921302 7.02588876 -1 10 C-1.33 9.34 -1.66 8.68 -2 8 C-2.66 7.67 -3.32 7.34 -4 7 C-2.68 4.69 -1.36 2.38 0 0 Z " fill="#352712" transform="translate(17,39)"/>
<path d="M0 0 C2.125 0.9375 2.125 0.9375 4 2 C2.68 2 1.36 2 0 2 C0.33 3.98 0.66 5.96 1 8 C-0.32 8.33 -1.64 8.66 -3 9 C-2.4140625 2.84765625 -2.4140625 2.84765625 -2 1 C-1.34 0.67 -0.68 0.34 0 0 Z " fill="#F7D57E" transform="translate(14,35)"/>
<path d="M0 0 C0.33 0.99 0.66 1.98 1 3 C2.32 2.34 3.64 1.68 5 1 C5 2.32 5 3.64 5 5 C3.35 5 1.7 5 0 5 C-0.33 5.66 -0.66 6.32 -1 7 C-1.625 4.625 -1.625 4.625 -2 2 C-1.34 1.34 -0.68 0.68 0 0 Z " fill="#A3894D" transform="translate(12,31)"/>
<path d="M0 0 C0.99 0.66 1.98 1.32 3 2 C2.74438677 4.3431213 2.40729228 6.67843403 2 9 C1.01 9.495 1.01 9.495 0 10 C0 9.34 0 8.68 0 8 C-0.66 7.67 -1.32 7.34 -2 7 C-1.34 7 -0.68 7 0 7 C-0.2784375 5.824375 -0.2784375 5.824375 -0.5625 4.625 C-1 2 -1 2 0 0 Z " fill="#39290E" transform="translate(83,16)"/>
<path d="M0 0 C1.32 0.33 2.64 0.66 4 1 C4 1.66 4 2.32 4 3 C5.65 3 7.3 3 9 3 C9 3.33 9 3.66 9 4 C4.71 4 0.42 4 -4 4 C-3.67 3.01 -3.34 2.02 -3 1 C-1.68 1.66 -0.36 2.32 1 3 C0.67 2.01 0.34 1.02 0 0 Z " fill="#1E0F04" transform="translate(57,35)"/>
<path d="M0 0 C0.99 0.33 1.98 0.66 3 1 C2.0022242 3.99332739 1.2477975 4.94766315 -1 7 C-0.34 7.33 0.32 7.66 1 8 C0.01 8.33 -0.98 8.66 -2 9 C-2 7.35 -2 5.7 -2 4 C-2.66 3.67 -3.32 3.34 -4 3 C-2.1875 1.4375 -2.1875 1.4375 0 0 Z " fill="#D7BD6F" transform="translate(62,5)"/>
<path d="M0 0 C2.475 0.99 2.475 0.99 5 2 C5 2.99 5 3.98 5 5 C1.25 6.125 1.25 6.125 -1 5 C-0.67 3.35 -0.34 1.7 0 0 Z " fill="#F0CE72" transform="translate(77,4)"/>
<path d="M0 0 C4.35535069 1.16142685 6.64619703 2.07699505 9 6 C8.01 6.495 8.01 6.495 7 7 C6.67 6.34 6.34 5.68 6 5 C5.01 5.495 5.01 5.495 4 6 C1 4 1 4 0.3125 1.875 C0.209375 1.25625 0.10625 0.6375 0 0 Z " fill="#56504A" transform="translate(78,1)"/>
<path d="M0 0 C-1.4638611 4.39158329 -3.97831338 4.87947433 -8 7 C-7.08529012 1.6946827 -5.46561428 0 0 0 Z " fill="#1B190A" transform="translate(33,40)"/>
<path d="M0 0 C0 2.31 0 4.62 0 7 C-0.99 7 -1.98 7 -3 7 C-3 6.34 -3 5.68 -3 5 C-3.66 5 -4.32 5 -5 5 C-5 4.01 -5 3.02 -5 2 C-1.125 0 -1.125 0 0 0 Z " fill="#F9D76C" transform="translate(65,28)"/>
<path d="M0 0 C1.65 0 3.3 0 5 0 C5 0.66 5 1.32 5 2 C6.65 2 8.3 2 10 2 C9.01 2.99 8.02 3.98 7 5 C4.0625 4.1875 4.0625 4.1875 1 3 C0.67 2.01 0.34 1.02 0 0 Z " fill="#302516" transform="translate(15,25)"/>
<path d="M0 0 C0.99 0.495 0.99 0.495 2 1 C2 1.66 2 2.32 2 3 C4.31 3.33 6.62 3.66 9 4 C9 4.66 9 5.32 9 6 C5.625 6.125 5.625 6.125 2 6 C1.34 5.34 0.68 4.68 0 4 C0 2.68 0 1.36 0 0 Z " fill="#180E01" transform="translate(57,20)"/>
<path d="M0 0 C0.66 0 1.32 0 2 0 C2.33 1.32 2.66 2.64 3 4 C4.32 3.67 5.64 3.34 7 3 C7.33 3.99 7.66 4.98 8 6 C5.69 6 3.38 6 1 6 C0.34 4.35 -0.32 2.7 -1 1 C-0.67 0.67 -0.34 0.34 0 0 Z " fill="#F2D580" transform="translate(58,9)"/>
<path d="M0 0 C3.96 0 7.92 0 12 0 C12 0.99 12 1.98 12 3 C4.5 3.375 4.5 3.375 0 0 Z " fill="#2A1B08" transform="translate(32,89)"/>
<path d="M0 0 C1.70884005 1.62339805 3.37446717 3.29319053 5 5 C5 5.66 5 6.32 5 7 C1.20411134 6.45773019 -0.47211993 4.79872437 -3 2 C-2.01 2 -1.02 2 0 2 C0 1.34 0 0.68 0 0 Z " fill="#C2AE6D" transform="translate(53,31)"/>
<path d="M0 0 C1.32 0.66 2.64 1.32 4 2 C3.01 3.485 3.01 3.485 2 5 C1.60986284 6.9896995 1.26797351 8.99019869 1 11 C-0.65 11 -2.3 11 -4 11 C-2.68 10.67 -1.36 10.34 0 10 C0 6.7 0 3.4 0 0 Z " fill="#E4C675" transform="translate(73,13)"/>
<path d="M0 0 C2 3 2 3 1.7578125 5.26171875 C1.54898437 6.06222656 1.34015625 6.86273438 1.125 7.6875 C0.92132812 8.49574219 0.71765625 9.30398437 0.5078125 10.13671875 C0.25644531 11.05904297 0.25644531 11.05904297 0 12 C-0.33 12 -0.66 12 -1 12 C-1 10.35 -1 8.7 -1 7 C-1.66 6.67 -2.32 6.34 -3 6 C-2.01 4.02 -1.02 2.04 0 0 Z " fill="#292810" transform="translate(24,45)"/>
<path d="M0 0 C-0.33 4.29 -0.66 8.58 -1 13 C-1.33 13 -1.66 13 -2 13 C-2 10.03 -2 7.06 -2 4 C-2.66 4 -3.32 4 -4 4 C-4 3.01 -4 2.02 -4 1 C-2 0 -2 0 0 0 Z " fill="#53442D" transform="translate(55,12)"/>
<path d="M0 0 C1.32 0.33 2.64 0.66 4 1 C4 2.98 4 4.96 4 7 C2.68 6.34 1.36 5.68 0 5 C0 3.35 0 1.7 0 0 Z " fill="#F7E7A9" transform="translate(26,68)"/>
<path d="M0 0 C-0.99 0.495 -0.99 0.495 -2 1 C-2.33 1.99 -2.66 2.98 -3 4 C-3 3.34 -3 2.68 -3 2 C-3.66 2 -4.32 2 -5 2 C-5 2.99 -5 3.98 -5 5 C-5.66 5 -6.32 5 -7 5 C-6.67 3.35 -6.34 1.7 -6 0 C-3 -1 -3 -1 0 0 Z " fill="#F5D578" transform="translate(25,30)"/>
<path d="M0 0 C1.98 0 3.96 0 6 0 C6 0.99 6 1.98 6 3 C3.69 3 1.38 3 -1 3 C-0.67 2.01 -0.34 1.02 0 0 Z " fill="#35210E" transform="translate(68,6)"/>
<path d="M0 0 C3 1.8125 3 1.8125 6 4 C6 4.99 6 5.98 6 7 C5.01 7 4.02 7 3 7 C0.64276511 4.46815512 0 3.52809907 0 0 Z " fill="#1F1309" transform="translate(11,78)"/>
<path d="M0 0 C1.65 0 3.3 0 5 0 C5 1.32 5 2.64 5 4 C3.35 3.67 1.7 3.34 0 3 C0 2.01 0 1.02 0 0 Z " fill="#957C40" transform="translate(5,53)"/>
<path d="M0 0 C1.98 0.66 3.96 1.32 6 2 C5.67 3.65 5.34 5.3 5 7 C4.67 6.01 4.34 5.02 4 4 C2.35 4 0.7 4 -1 4 C-0.67 2.68 -0.34 1.36 0 0 Z " fill="#E2D29F" transform="translate(17,44)"/>
<path d="M0 0 C2.31 0.66 4.62 1.32 7 2 C4.61426621 3.89213369 2.92824652 5.02391783 0 6 C0.185625 5.38125 0.37125 4.7625 0.5625 4.125 C1.23686176 1.95839822 1.23686176 1.95839822 0 0 Z " fill="#E0C373" transform="translate(23,28)"/>
<path d="M0 0 C0.99 0.33 1.98 0.66 3 1 C3 1.66 3 2.32 3 3 C1.02 3.66 -0.96 4.32 -3 5 C-3.66 4.01 -4.32 3.02 -5 2 C-4.360625 1.855625 -3.72125 1.71125 -3.0625 1.5625 C-1.02454854 1.18992819 -1.02454854 1.18992819 0 0 Z " fill="#8A6C3C" transform="translate(15,74)"/>
<path d="M0 0 C0 1.65 0 3.3 0 5 C-1.32 5 -2.64 5 -4 5 C-4 3.68 -4 2.36 -4 1 C-1 0 -1 0 0 0 Z " fill="#F3D06D" transform="translate(61,68)"/>
<path d="M0 0 C1.32 0 2.64 0 4 0 C3.67 1.98 3.34 3.96 3 6 C2.01 6 1.02 6 0 6 C0.185625 5.38125 0.37125 4.7625 0.5625 4.125 C1.23686176 1.95839822 1.23686176 1.95839822 0 0 Z " fill="#F9E9A9" transform="translate(46,68)"/>
<path d="M0 0 C0.99 0.99 1.98 1.98 3 3 C2.34 4.32 1.68 5.64 1 7 C1 6.34 1 5.68 1 5 C0.34 5 -0.32 5 -1 5 C-0.67 3.35 -0.34 1.7 0 0 Z " fill="#322A17" transform="translate(9,67)"/>
<path d="M0 0 C1.32 0 2.64 0 4 0 C3.67 1.32 3.34 2.64 3 4 C1.35 4 -0.3 4 -2 4 C-2 3.34 -2 2.68 -2 2 C-1.34 2 -0.68 2 0 2 C0 1.34 0 0.68 0 0 Z " fill="#556B3C" transform="translate(27,58)"/>
<path d="M0 0 C0.66 0 1.32 0 2 0 C2.33 2.64 2.66 5.28 3 8 C2.34 8 1.68 8 1 8 C-0.35439668 5.29120665 -0.06501451 2.99066732 0 0 Z " fill="#150F02" transform="translate(21,52)"/>
<path d="M0 0 C0.33 0 0.66 0 1 0 C1.125 5.75 1.125 5.75 0 8 C-0.66 8 -1.32 8 -2 8 C-2.33 6.02 -2.66 4.04 -3 2 C-2.34 2.66 -1.68 3.32 -1 4 C-0.67 2.68 -0.34 1.36 0 0 Z " fill="#645851" transform="translate(88,38)"/>
</svg>
