<?xml version="1.0" encoding="UTF-8"?>
<svg version="1.1" xmlns="http://www.w3.org/2000/svg" width="50" height="50">
<path d="M0 0 C0.38133299 1.9914056 0.71325582 3.99279077 1 6 C0.67 6.33 0.34 6.66 0 7 C-0.14608293 8.98642661 -0.22737555 10.97768786 -0.28125 12.96875 C-0.31863281 14.17917969 -0.35601562 15.38960937 -0.39453125 16.63671875 C-0.42933594 17.91160156 -0.46414062 19.18648437 -0.5 20.5 C-0.5685385 23.01054001 -0.64122276 25.52097149 -0.71875 28.03125 C-0.74904297 29.15080078 -0.77933594 30.27035156 -0.81054688 31.42382812 C-1 34 -1 34 -2 35 C-4.69654854 35.07319621 -7.36691458 35.09242537 -10.0625 35.0625 C-11.20041992 35.05573242 -11.20041992 35.05573242 -12.36132812 35.04882812 C-14.24091871 35.0370068 -16.12046899 35.01907078 -18 35 C-18 36.32 -18 37.64 -18 39 C-16.35 39 -14.7 39 -13 39 C-12.505 41.475 -12.505 41.475 -12 44 C-19.92 44 -27.84 44 -36 44 C-36 42.68 -36 41.36 -36 40 C-34.02 40 -32.04 40 -30 40 C-30 38.35 -30 36.7 -30 35 C-31.14339844 35.01160156 -32.28679688 35.02320313 -33.46484375 35.03515625 C-34.95572754 35.04453288 -36.44661309 35.05363321 -37.9375 35.0625 C-38.69224609 35.07087891 -39.44699219 35.07925781 -40.22460938 35.08789062 C-42.14994313 35.09652441 -44.07535581 35.05224333 -46 35 C-47 34 -47 34 -47.11352539 31.31616211 C-47.10828857 30.14835205 -47.10305176 28.98054199 -47.09765625 27.77734375 C-47.09443359 26.51728516 -47.09121094 25.25722656 -47.08789062 23.95898438 C-47.07953403 22.61848891 -47.07106907 21.27799412 -47.0625 19.9375 C-47.0574866 18.59310058 -47.05292342 17.2486994 -47.04882812 15.90429688 C-47.03699488 12.60282059 -47.02050971 9.30143197 -47 6 C-45.96593018 5.99589111 -44.93186035 5.99178223 -43.86645508 5.98754883 C-40.01748302 5.96572133 -36.16952802 5.91139574 -32.32104492 5.84741211 C-30.65773288 5.82426334 -28.9942749 5.80984369 -27.33081055 5.80444336 C-24.93446249 5.7951302 -22.54039941 5.75409449 -20.14453125 5.70703125 C-19.03486748 5.71293022 -19.03486748 5.71293022 -17.90278625 5.71894836 C-13.89572161 5.60655983 -12.2314093 5.20353686 -9.1784668 2.51831055 C-8.45957275 1.68726807 -7.74067871 0.85622559 -7 0 C-3.86650268 -1.04449911 -3.01031744 -0.93423645 0 0 Z M-6.28515625 4.1875 C-7.20167969 5.115625 -8.11820313 6.04375 -9.0625 7 C-10.44115234 8.3921875 -10.44115234 8.3921875 -11.84765625 9.8125 C-12.55792969 10.534375 -13.26820312 11.25625 -14 12 C-13.67 12.99 -13.34 13.98 -13 15 C-11.72689688 14.06558465 -10.456612 13.12732889 -9.1875 12.1875 C-8.47980469 11.66542969 -7.77210937 11.14335937 -7.04296875 10.60546875 C-5.19643185 9.15436614 -3.51891514 7.79154094 -2 6 C-2.22757731 3.83700789 -2.22757731 3.83700789 -3 2 C-4.40683762 1.88474951 -4.40683762 1.88474951 -6.28515625 4.1875 Z M-45 8 C-45 14.93 -45 21.86 -45 29 C-30.81 29 -16.62 29 -2 29 C-2.33 22.73 -2.66 16.46 -3 10 C-5.54102238 12.54102238 -8.08153149 15.08263161 -10.60546875 17.640625 C-11.45753906 18.50171875 -12.30960938 19.3628125 -13.1875 20.25 C-14.04730469 21.12140625 -14.90710938 21.9928125 -15.79296875 22.890625 C-18.96291411 25.92030729 -20.72864245 26.14425573 -25.0078125 26.31640625 C-25.99394531 26.35830078 -26.98007812 26.40019531 -27.99609375 26.44335938 C-29.02863281 26.48267578 -30.06117187 26.52199219 -31.125 26.5625 C-32.68541016 26.62727539 -32.68541016 26.62727539 -34.27734375 26.69335938 C-36.85142528 26.7996288 -39.42560508 26.90166583 -42 27 C-42 26.34 -42 25.68 -42 25 C-37.05 25 -32.1 25 -27 25 C-26.34 22.69 -25.68 20.38 -25 18 C-23.125 15.890625 -23.125 15.890625 -21 14.25 C-18.37698261 12.1863025 -16.88701324 10.83051986 -15 8 C-24.9 8 -34.8 8 -45 8 Z M-18 16 C-18 16.99 -18 17.98 -18 19 C-17.01 18.67 -16.02 18.34 -15 18 C-15.33 17.34 -15.66 16.68 -16 16 C-16.66 16 -17.32 16 -18 16 Z M-22 19 C-22.66 19.66 -23.32 20.32 -24 21 C-24 21.99 -24 22.98 -24 24 C-22.35 23.67 -20.7 23.34 -19 23 C-19.66 21.68 -20.32 20.36 -21 19 C-21.33 19 -21.66 19 -22 19 Z M-45 31 C-45 31.66 -45 32.32 -45 33 C-40.86065311 34.15606225 -36.85556997 34.14385877 -32.5859375 34.1328125 C-31.36966171 34.13424759 -31.36966171 34.13424759 -30.1288147 34.13571167 C-28.41920901 34.13639083 -26.70960071 34.13455498 -25 34.13037109 C-22.3775457 34.12500521 -19.75526158 34.13033212 -17.1328125 34.13671875 C-15.47135379 34.13605819 -13.80989518 34.1347775 -12.1484375 34.1328125 C-11.36197845 34.13483673 -10.57551941 34.13686096 -9.76522827 34.13894653 C-5.75245899 34.21224132 -5.75245899 34.21224132 -2 33 C-2 32.34 -2 31.68 -2 31 C-16.19 31 -30.38 31 -45 31 Z M-28 35 C-28 36.32 -28 37.64 -28 39 C-25.36 39 -22.72 39 -20 39 C-20 37.68 -20 36.36 -20 35 C-22.64 35 -25.28 35 -28 35 Z M-33 41 C-33 41.33 -33 41.66 -33 42 C-27.39 42 -21.78 42 -16 42 C-16 41.67 -16 41.34 -16 41 C-21.61 41 -27.22 41 -33 41 Z " fill="#ECC73A" transform="translate(49,1)"/>
<path d="M0 0 C0.495 2.97 0.495 2.97 1 6 C0.071875 6.3403125 0.071875 6.3403125 -0.875 6.6875 C-3.19046389 7.80505023 -3.19046389 7.80505023 -3.7265625 10.16015625 C-5.52802169 14.17752077 -8.36176499 16.72068421 -11.5 19.75 C-12.09425781 20.33910156 -12.68851563 20.92820312 -13.30078125 21.53515625 C-17.32181468 25.48357508 -19.20764483 27.13099055 -25.0078125 27.09765625 C-25.99394531 27.09443359 -26.98007812 27.09121094 -27.99609375 27.08789062 C-29.02863281 27.07951172 -30.06117187 27.07113281 -31.125 27.0625 C-32.68541016 27.05573242 -32.68541016 27.05573242 -34.27734375 27.04882812 C-36.85161962 27.03701952 -39.42578146 27.02055075 -42 27 C-42 26.34 -42 25.68 -42 25 C-37.05 25 -32.1 25 -27 25 C-26.67 22.69 -26.34 20.38 -26 18 C-23.8203125 15.3828125 -23.8203125 15.3828125 -21.125 13.125 C-20.24070312 12.36445313 -19.35640625 11.60390625 -18.4453125 10.8203125 C-16 9 -16 9 -13 8 C-11.96210419 6.35666496 -10.96432076 4.68756133 -10 3 C-6.94783051 -0.5608644 -4.51076295 -1.39989195 0 0 Z M-6.28515625 4.1875 C-7.20167969 5.115625 -8.11820313 6.04375 -9.0625 7 C-10.44115234 8.3921875 -10.44115234 8.3921875 -11.84765625 9.8125 C-12.55792969 10.534375 -13.26820312 11.25625 -14 12 C-13.67 12.99 -13.34 13.98 -13 15 C-11.72689688 14.06558465 -10.456612 13.12732889 -9.1875 12.1875 C-8.47980469 11.66542969 -7.77210937 11.14335937 -7.04296875 10.60546875 C-5.19643185 9.15436614 -3.51891514 7.79154094 -2 6 C-2.22757731 3.83700789 -2.22757731 3.83700789 -3 2 C-4.40683762 1.88474951 -4.40683762 1.88474951 -6.28515625 4.1875 Z M-18 16 C-18 16.99 -18 17.98 -18 19 C-17.01 18.67 -16.02 18.34 -15 18 C-15.33 17.34 -15.66 16.68 -16 16 C-16.66 16 -17.32 16 -18 16 Z M-22 19 C-22.66 19.66 -23.32 20.32 -24 21 C-24 21.99 -24 22.98 -24 24 C-22.35 23.67 -20.7 23.34 -19 23 C-19.66 21.68 -20.32 20.36 -21 19 C-21.33 19 -21.66 19 -22 19 Z " fill="#F2D337" transform="translate(49,1)"/>
<path d="M0 0 C0.66 0 1.32 0 2 0 C2 7.26 2 14.52 2 22 C3.32 22 4.64 22 6 22 C6 22.66 6 23.32 6 24 C4.68 24 3.36 24 2 24 C2 24.99 2 25.98 2 27 C1.34 27 0.68 27 0 27 C0 18.09 0 9.18 0 0 Z " fill="#ECB82E" transform="translate(2,8)"/>
<path d="M0 0 C0.66 0.33 1.32 0.66 2 1 C1.505 1.433125 1.01 1.86625 0.5 2.3125 C-1.33218192 3.99740483 -1.33218192 3.99740483 -1 7 C-2.3125 8.82421875 -2.3125 8.82421875 -4 10.6875 C-4.556875 11.31011719 -5.11375 11.93273438 -5.6875 12.57421875 C-6.120625 13.04472656 -6.55375 13.51523438 -7 14 C-8.32 13.67 -9.64 13.34 -11 13 C-11 13.66 -11 14.32 -11 15 C-10.34 15.33 -9.68 15.66 -9 16 C-11.31 16.33 -13.62 16.66 -16 17 C-15.0919838 15.86800647 -14.17316174 14.74467637 -13.25 13.625 C-12.48429687 12.68527344 -12.48429687 12.68527344 -11.703125 11.7265625 C-9.90905971 9.90780824 -8.27343589 9.11093671 -6 8 C-4.95107762 6.36368108 -3.95093297 4.69514137 -3 3 C-1.3125 1.1875 -1.3125 1.1875 0 0 Z " fill="#F4D374" transform="translate(42,1)"/>
<path d="M0 0 C0.66 0.33 1.32 0.66 2 1 C2 2.32 2 3.64 2 5 C-4.93 5 -11.86 5 -19 5 C-19 4.34 -19 3.68 -19 3 C-12.73 2.67 -6.46 2.34 0 2 C0 1.34 0 0.68 0 0 Z " fill="#D9B55A" transform="translate(35,40)"/>
<path d="M0 0 C0.73605469 0.00451172 1.47210938 0.00902344 2.23046875 0.01367188 C4.02868158 0.02534858 5.82685197 0.04327989 7.625 0.0625 C7.625 0.7225 7.625 1.3825 7.625 2.0625 C1.355 2.0625 -4.915 2.0625 -11.375 2.0625 C-11.375 3.0525 -11.375 4.0425 -11.375 5.0625 C-12.365 5.0625 -13.355 5.0625 -14.375 5.0625 C-14.375 3.7425 -14.375 2.4225 -14.375 1.0625 C-9.51770355 0.08950844 -4.9249375 -0.05788805 0 0 Z " fill="#EFBD21" transform="translate(27.375,39.9375)"/>
<path d="M0 0 C2.3125 0.1875 2.3125 0.1875 4 1 C4.33 2.98 4.66 4.96 5 7 C3.02 7.99 3.02 7.99 1 9 C1 9.66 1 10.32 1 11 C0.34 11 -0.32 11 -1 11 C-0.4740625 10.1028125 -0.4740625 10.1028125 0.0625 9.1875 C1.33304698 6.89186786 1.33304698 6.89186786 0 4 C-0.66 4.66 -1.32 5.32 -2 6 C-2.99 5.67 -3.98 5.34 -5 5 C-2.75 2.4375 -2.75 2.4375 0 0 Z " fill="#ECCE37" transform="translate(45,0)"/>
<path d="M0 0 C0.66 0.33 1.32 0.66 2 1 C2 4 2 4 1 7 C3.31 7 5.62 7 8 7 C7.01 7.99 6.02 8.98 5 10 C4.01 9.67 3.02 9.34 2 9 C0.66893378 8.65772583 -0.66400079 8.32248257 -2 8 C-1.125 1.125 -1.125 1.125 0 0 Z " fill="#F2D561" transform="translate(24,18)"/>
<path d="M0 0 C0.33 0.66 0.66 1.32 1 2 C1.66 1.67 2.32 1.34 3 1 C3.66 0.67 4.32 0.34 5 0 C4.67 1.32 4.34 2.64 4 4 C3.01 4 2.02 4 1 4 C1 5.32 1 6.64 1 8 C-1 7 -1 7 -2 4 C-2.99 3.34 -3.98 2.68 -5 2 C-2 0 -2 0 0 0 Z " fill="#F4CE43" transform="translate(30,17)"/>
<path d="M0 0 C0.66 0 1.32 0 2 0 C2 1.32 2 2.64 2 4 C3.32 4 4.64 4 6 4 C6 4.66 6 5.32 6 6 C4.68 6 3.36 6 2 6 C2 6.99 2 7.98 2 9 C1.34 9 0.68 9 0 9 C0 6.03 0 3.06 0 0 Z " fill="#E2BC28" transform="translate(2,26)"/>
<path d="M0 0 C2.3125 0.1875 2.3125 0.1875 4 1 C2.59240479 3.81519043 0.77416723 4.61291638 -2 6 C-2.99 5.67 -3.98 5.34 -5 5 C-2.75 2.4375 -2.75 2.4375 0 0 Z " fill="#E8C55D" transform="translate(45,0)"/>
<path d="M0 0 C0.66 0.33 1.32 0.66 2 1 C2 2.32 2 3.64 2 5 C0.02 5 -1.96 5 -4 5 C-3.34 4.01 -2.68 3.02 -2 2 C-1.34 2 -0.68 2 0 2 C0 1.34 0 0.68 0 0 Z " fill="#E7C44F" transform="translate(35,40)"/>
<path d="M0 0 C0.33 0.66 0.66 1.32 1 2 C0.67 2.66 0.34 3.32 0 4 C0.66 4.33 1.32 4.66 2 5 C-0.31 5.33 -2.62 5.66 -5 6 C-3.35 4.02 -1.7 2.04 0 0 Z " fill="#F4E180" transform="translate(31,12)"/>
</svg>
